<svg width="164" height="26" viewBox="0 0 164 26" fill="none" xmlns="http://www.w3.org/2000/svg">
<path d="M52.3036 21.1929L50.6648 24.3736H28.0388L40.3601 0.666035H49.1511C47.6278 3.72797 43.7774 11.2022 41.3564 15.8933C39.1063 20.6983 43.1252 21.1929 45.2694 21.1929H52.3036Z" fill="#016F32"/>
<path d="M23.4099 21.1856L21.7687 24.3712H15.531C2.94741 24.3712 -3.5285 15.5272 3.13271 7.74267C8.46552 1.51455 18.9314 0.670883 23.949 0.666035H34.0635L32.3886 3.89282H27.1063C19.8868 3.89282 15.1652 6.07957 12.7106 12.8023C10.7469 18.1794 14.3109 21.1856 19.7424 21.1856H23.4123H23.4099Z" fill="#016F32"/>
<path d="M99.931 5.99448L90.4229 24.3321H94.0398C94.6487 23.1563 96.6196 19.3695 99.6735 13.4736C102.643 7.54848 104.39 9.76674 105.24 11.6359C106.015 13.3426 107.507 16.6688 108.257 18.3319C109.105 20.2083 111.018 25.0376 113.518 25.0376C117.578 25.0667 120.259 19.612 121.719 16.9258L130.171 0.634279H126.655C125.291 3.24044 122.102 9.39582 120.035 13.4008C117.78 17.3501 116.307 15.2845 115.602 13.7523C114.627 11.6408 112.681 7.39817 111.74 5.289C111.039 3.72046 109.718 -0.000896454 107.037 -0.000896454C103.456 -0.000896454 101.028 3.87804 99.931 5.99448Z" fill="#016F32"/>
<path d="M133.76 5.99448L124.252 24.3321H127.869C128.478 23.1563 130.449 19.3695 133.503 13.4736C136.472 7.54848 138.219 9.76674 139.069 11.6359C139.844 13.3426 141.336 16.6688 142.087 18.3319C142.934 20.2083 144.847 25.0376 147.347 25.0376C151.407 25.0667 154.088 19.612 155.549 16.9258L164 0.634279H160.484C159.12 3.24044 155.931 9.39582 153.864 13.4008C151.609 17.3501 150.136 15.2845 149.431 13.7523C148.457 11.6408 146.51 7.39817 145.569 5.289C144.868 3.72046 143.547 -0.000896454 140.866 -0.000896454C137.286 -0.000896454 134.857 3.87804 133.76 5.99448Z" fill="#016F32"/>
<path d="M91.7563 0.301802C71.3901 0.301802 60.183 17.374 54.9922 24.3318C54.9753 24.356 54.9561 24.3803 54.9392 24.4021H69.3518L71.0195 21.168H63.7494C65.6674 18.6128 69.1207 14.8478 72.4032 12.3313C74.2033 10.9519 78.0994 8.34817 80.6094 7.41237C85.6149 5.54806 83.9689 8.26089 81.3578 13.2574C81.0883 13.7762 80.3952 15.1072 79.5818 16.6782L75.6303 24.4021H84.248L92.435 8.59302C95.638 2.50795 95.2987 0.287256 91.7563 0.301802Z" fill="#016F32"/>
</svg>
