<svg width="169" height="26" viewBox="0 0 169 26" fill="none" xmlns="http://www.w3.org/2000/svg">
<path d="M54.114 21.9382L52.4283 25.2095H29.1559L41.8292 0.827148H50.8714C49.3045 3.97623 45.3441 11.6632 42.854 16.4878C40.5396 21.4296 44.6733 21.9382 46.8788 21.9382H54.114Z" fill="#016F32"/>
<path d="M24.3976 21.9307L22.7094 25.207H16.2936C3.35043 25.207 -3.3105 16.1113 3.54102 8.10519C9.0262 1.69982 19.7911 0.832135 24.952 0.827148H35.3556L33.6328 4.14578H28.1996C20.7738 4.14578 15.9173 6.39476 13.3926 13.3088C11.3727 18.839 15.0386 21.9307 20.6253 21.9307H24.4001H24.3976Z" fill="#016F32"/>
<path d="M103.104 6.30762L93.3246 25.1672H97.045C97.6712 23.9579 99.6984 20.0633 102.84 13.9996C105.894 7.90584 107.691 10.1872 108.565 12.1096C109.362 13.8649 110.897 17.2858 111.669 18.9962C112.54 20.926 114.508 25.8928 117.08 25.8928C121.256 25.9227 124.013 20.3127 125.515 17.5501L134.209 0.794855H130.592C129.189 3.47519 125.909 9.80576 123.783 13.9248C121.463 17.9864 119.949 15.8621 119.223 14.2863C118.221 12.1146 116.218 7.75126 115.251 5.58206C114.53 3.96887 113.171 0.141602 110.414 0.141602C106.731 0.141602 104.233 4.13094 103.104 6.30762Z" fill="#016F32"/>
<path d="M137.9 6.30762L128.12 25.1672H131.84C132.467 23.9579 134.494 20.0633 137.635 13.9996C140.689 7.90584 142.486 10.1872 143.36 12.1096C144.157 13.8649 145.692 17.2858 146.464 18.9962C147.336 20.926 149.303 25.8928 151.875 25.8928C156.051 25.9227 158.808 20.3127 160.311 17.5501L169.004 0.794855H165.388C163.984 3.47519 160.704 9.80576 158.578 13.9248C156.259 17.9864 154.744 15.8621 154.019 14.2863C153.016 12.1146 151.014 7.75126 150.046 5.58206C149.326 3.96887 147.967 0.141602 145.209 0.141602C141.526 0.141602 139.029 4.13094 137.9 6.30762Z" fill="#016F32"/>
<path d="M94.6964 0.45271C73.7482 0.45271 62.2209 18.0108 56.8818 25.1666C56.8645 25.1916 56.8447 25.2165 56.8273 25.2389H71.6517L73.367 21.9128H65.8893C67.8621 19.2849 71.414 15.4127 74.7903 12.8246C76.6418 11.4059 80.6493 8.72809 83.231 7.76566C88.3795 5.84829 86.6864 8.63833 84.0008 13.7771C83.7235 14.3107 83.0107 15.6795 82.174 17.2952L78.1096 25.2389H86.9735L95.3944 8.97991C98.689 2.72164 98.34 0.43775 94.6964 0.45271Z" fill="#016F32"/>
</svg>
