<svg width="160" height="26" viewBox="0 0 160 26" fill="none" xmlns="http://www.w3.org/2000/svg">
<path d="M50.6231 21.5791L49.0225 24.6853H26.9243L38.9582 1.5332H47.5441C46.0563 4.52339 42.2957 11.8225 39.9313 16.4037C37.7337 21.0961 41.6588 21.5791 43.753 21.5791H50.6231Z" fill="#016F32"/>
<path d="M22.4034 21.572L20.8005 24.6829H14.7083C2.41822 24.6829 -3.90663 16.0462 2.5992 8.44403C7.80762 2.36184 18.0294 1.53794 22.9299 1.5332H32.8085L31.1726 4.68439H26.0136C18.9625 4.68439 14.351 6.8199 11.9537 13.3851C10.0358 18.6362 13.5167 21.572 18.8215 21.572H22.4058H22.4034Z" fill="#016F32"/>
<path d="M97.1393 6.73674L87.853 24.6447H91.3856C91.9803 23.4965 93.9052 19.7984 96.8879 14.0406C99.7882 8.25433 101.495 10.4206 102.324 12.246C103.081 13.9127 104.538 17.161 105.272 18.7851C106.099 20.6176 107.968 25.3337 110.41 25.3337C114.375 25.3621 116.993 20.0352 118.42 17.4119L126.674 1.50213H123.24C121.908 4.04722 118.793 10.0584 116.774 13.9695C114.572 17.8263 113.134 15.8091 112.445 14.3128C111.493 12.2507 109.592 8.10754 108.673 6.04779C107.989 4.516 106.698 0.881836 104.08 0.881836C100.583 0.881836 98.2111 4.66989 97.1393 6.73674Z" fill="#016F32"/>
<path d="M130.179 6.73674L120.893 24.6447H124.426C125.02 23.4965 126.945 19.7984 129.928 14.0406C132.828 8.25433 134.535 10.4206 135.364 12.246C136.121 13.9127 137.578 17.161 138.312 18.7851C139.139 20.6176 141.008 25.3337 143.45 25.3337C147.415 25.3621 150.033 20.0352 151.46 17.4119L159.714 1.50213H156.28C154.948 4.04722 151.833 10.0584 149.814 13.9695C147.612 17.8263 146.174 15.8091 145.485 14.3128C144.533 12.2507 142.632 8.10754 141.713 6.04779C141.029 4.516 139.738 0.881836 137.12 0.881836C133.623 0.881836 131.251 4.66989 130.179 6.73674Z" fill="#016F32"/>
<path d="M89.1556 1.17732C69.2644 1.17732 58.3187 17.8495 53.249 24.6443C53.2325 24.668 53.2137 24.6916 53.1973 24.7129H67.2736L68.9024 21.5547H61.802C63.6752 19.0593 67.048 15.3825 70.2539 12.925C72.012 11.5779 75.8172 9.03515 78.2687 8.12128C83.1574 6.30065 81.5498 8.94992 78.9996 13.8294C78.7364 14.3361 78.0595 15.6358 77.2651 17.17L73.4058 24.7129H81.8224L89.8184 9.27427C92.9467 3.33177 92.6153 1.16311 89.1556 1.17732Z" fill="#016F32"/>
</svg>
